<svg width="19" height="18" viewBox="0 0 19 18" fill="none" xmlns="http://www.w3.org/2000/svg">
<path d="M0.849609 2.07127C0.849609 1.49405 1.05232 1.01786 1.45772 0.642696C1.86312 0.26751 2.39016 0.0799255 3.0388 0.0799255C3.67587 0.0799255 4.1913 0.264618 4.58513 0.634038C4.99053 1.01499 5.19324 1.51137 5.19324 2.12321C5.19324 2.67733 4.99633 3.13908 4.6025 3.5085C4.19711 3.88945 3.66428 4.07992 3.00405 4.07992H2.98668C2.3496 4.07992 1.83417 3.88945 1.44034 3.5085C1.04651 3.12754 0.849609 2.64846 0.849609 2.07127ZM1.07548 17.2228V5.65568H4.93262V17.2228H1.07548ZM7.06969 17.2228H10.9268V10.7639C10.9268 10.3599 10.9732 10.0482 11.0658 9.82884C11.228 9.43634 11.4741 9.10444 11.8042 8.83317C12.1344 8.56188 12.5484 8.42624 13.0465 8.42624C14.3438 8.42624 14.9925 9.29781 14.9925 11.041V17.2228H18.8496V10.5907C18.8496 8.88223 18.4442 7.58642 17.6334 6.7033C16.8226 5.82018 15.7512 5.37862 14.4191 5.37862C12.9249 5.37862 11.7608 6.01932 10.9268 7.3007V7.33533H10.9095L10.9268 7.3007V5.65568H7.06969C7.09285 6.02508 7.10444 7.17371 7.10444 9.10157C7.10444 11.0294 7.09285 13.7365 7.06969 17.2228Z" fill="#4A3AFF"/>
</svg>
