<svg width="21" height="15" viewBox="0 0 21 15" fill="none" xmlns="http://www.w3.org/2000/svg">
<path d="M11.2884 14.1313L7.22617 14.0554C5.91092 14.0289 4.5924 14.0817 3.30294 13.8076C1.34138 13.3981 1.20241 11.3902 1.057 9.70599C0.856641 7.33814 0.934207 4.92733 1.31232 2.57925C1.52577 1.26174 2.3658 0.475565 3.66488 0.390015C8.05023 0.0795399 12.4647 0.116334 16.8404 0.261182C17.3025 0.274461 17.7678 0.347037 18.2235 0.429647C20.4728 0.832565 20.5276 3.10796 20.6734 5.02342C20.8189 6.95864 20.7575 8.9038 20.4795 10.8258C20.2566 12.4172 19.8299 13.7518 18.0296 13.8806C15.7738 14.0491 13.5698 14.1847 11.3077 14.1415C11.3078 14.1313 11.2948 14.1313 11.2884 14.1313ZM8.90019 10.1023C10.6001 9.1049 12.2676 8.12411 13.9577 7.13339C12.2547 6.13598 10.5904 5.15519 8.90019 4.16447V10.1023Z" fill="#4A3AFF"/>
</svg>
