<svg width="19" height="19" viewBox="0 0 19 19" fill="none" xmlns="http://www.w3.org/2000/svg">
<path fill-rule="evenodd" clip-rule="evenodd" d="M0.849609 9.15137C0.849609 5.55623 0.849609 3.75866 1.7063 2.46392C2.08886 1.88576 2.584 1.39061 3.16216 1.00806C4.4569 0.151367 6.25447 0.151367 9.84961 0.151367C13.4447 0.151367 15.2423 0.151367 16.5371 1.00806C17.1152 1.39061 17.6104 1.88576 17.9929 2.46392C18.8496 3.75866 18.8496 5.55623 18.8496 9.15137C18.8496 12.7465 18.8496 14.5441 17.9929 15.8388C17.6104 16.417 17.1152 16.9121 16.5371 17.2947C15.2423 18.1514 13.4447 18.1514 9.84961 18.1514C6.25447 18.1514 4.4569 18.1514 3.16216 17.2947C2.584 16.9121 2.08886 16.417 1.7063 15.8388C0.849609 14.5441 0.849609 12.7465 0.849609 9.15137ZM14.5089 9.15159C14.5089 11.7249 12.4228 13.811 9.84945 13.811C7.27613 13.811 5.19004 11.7249 5.19004 9.15159C5.19004 6.57827 7.27613 4.49219 9.84945 4.49219C12.4228 4.49219 14.5089 6.57827 14.5089 9.15159ZM9.84945 12.2346C11.5521 12.2346 12.9325 10.8543 12.9325 9.15159C12.9325 7.4489 11.5521 6.06859 9.84945 6.06859C8.14675 6.06859 6.76645 7.4489 6.76645 9.15159C6.76645 10.8543 8.14675 12.2346 9.84945 12.2346ZM14.6929 5.35292C15.2975 5.35292 15.7877 4.86275 15.7877 4.25809C15.7877 3.65344 15.2975 3.16327 14.6929 3.16327C14.0882 3.16327 13.5981 3.65344 13.5981 4.25809C13.5981 4.86275 14.0882 5.35292 14.6929 5.35292Z" fill="#4A3AFF"/>
</svg>
