<svg width="105" height="165" viewBox="0 0 105 165" fill="none" xmlns="http://www.w3.org/2000/svg">
<rect y="0.27002" width="2.83784" height="4.48626" fill="white" fill-opacity="0.36"/>
<rect x="11.3516" y="0.27002" width="2.83784" height="4.48626" fill="white" fill-opacity="0.36"/>
<rect x="22.7026" y="0.27002" width="2.83784" height="4.48626" fill="white" fill-opacity="0.36"/>
<rect x="34.0542" y="0.27002" width="2.83784" height="4.48626" fill="white" fill-opacity="0.36"/>
<rect x="45.4053" y="0.27002" width="2.83784" height="4.48626" fill="white" fill-opacity="0.36"/>
<rect x="56.7568" y="0.27002" width="2.83784" height="4.48626" fill="white" fill-opacity="0.36"/>
<rect x="68.1084" y="0.27002" width="2.83784" height="4.48626" fill="white" fill-opacity="0.36"/>
<rect x="79.4595" y="0.27002" width="2.83784" height="4.48626" fill="white" fill-opacity="0.36"/>
<rect x="90.811" y="0.27002" width="2.83784" height="4.48626" fill="white" fill-opacity="0.36"/>
<rect x="102.162" y="0.27002" width="2.83784" height="4.48626" fill="white" fill-opacity="0.36"/>
<rect y="18.2151" width="2.83784" height="4.48626" fill="white" fill-opacity="0.36"/>
<rect x="11.3511" y="18.2151" width="2.83784" height="4.48626" fill="white" fill-opacity="0.36"/>
<rect x="22.7026" y="18.2151" width="2.83784" height="4.48626" fill="white" fill-opacity="0.36"/>
<rect x="34.0537" y="18.2151" width="2.83784" height="4.48626" fill="white" fill-opacity="0.36"/>
<rect x="45.4053" y="18.2151" width="2.83784" height="4.48626" fill="white" fill-opacity="0.36"/>
<rect x="56.7568" y="18.2151" width="2.83784" height="4.48626" fill="white" fill-opacity="0.36"/>
<rect x="68.1084" y="18.2151" width="2.83784" height="4.48626" fill="white" fill-opacity="0.36"/>
<rect x="79.46" y="18.2151" width="2.83784" height="4.48626" fill="white" fill-opacity="0.36"/>
<rect x="90.8105" y="18.2151" width="2.83784" height="4.48626" fill="white" fill-opacity="0.36"/>
<rect x="102.162" y="18.2151" width="2.83784" height="4.48626" fill="white" fill-opacity="0.36"/>
<rect y="36.1602" width="2.83784" height="4.48626" fill="white" fill-opacity="0.36"/>
<rect x="11.3511" y="36.1602" width="2.83784" height="4.48626" fill="white" fill-opacity="0.36"/>
<rect x="22.7026" y="36.1602" width="2.83784" height="4.48626" fill="white" fill-opacity="0.36"/>
<rect x="34.0537" y="36.1602" width="2.83784" height="4.48626" fill="white" fill-opacity="0.36"/>
<rect x="45.4053" y="36.1602" width="2.83784" height="4.48626" fill="white" fill-opacity="0.36"/>
<rect x="56.7568" y="36.1602" width="2.83784" height="4.48626" fill="white" fill-opacity="0.36"/>
<rect x="68.1084" y="36.1602" width="2.83784" height="4.48626" fill="white" fill-opacity="0.36"/>
<rect x="79.46" y="36.1602" width="2.83784" height="4.48626" fill="white" fill-opacity="0.36"/>
<rect x="90.8105" y="36.1602" width="2.83784" height="4.48626" fill="white" fill-opacity="0.36"/>
<rect x="102.162" y="36.1602" width="2.83784" height="4.48626" fill="white" fill-opacity="0.36"/>
<rect y="54.1052" width="2.83784" height="4.48626" fill="white" fill-opacity="0.36"/>
<rect x="11.3511" y="54.1052" width="2.83784" height="4.48626" fill="white" fill-opacity="0.36"/>
<rect x="22.7026" y="54.1052" width="2.83784" height="4.48626" fill="white" fill-opacity="0.36"/>
<rect x="34.0537" y="54.1052" width="2.83784" height="4.48626" fill="white" fill-opacity="0.36"/>
<rect x="45.4053" y="54.1052" width="2.83784" height="4.48626" fill="white" fill-opacity="0.36"/>
<rect x="56.7568" y="54.1052" width="2.83784" height="4.48626" fill="white" fill-opacity="0.36"/>
<rect x="68.1084" y="54.1052" width="2.83784" height="4.48626" fill="white" fill-opacity="0.36"/>
<rect x="79.46" y="54.1052" width="2.83784" height="4.48626" fill="white" fill-opacity="0.36"/>
<rect x="90.8105" y="54.1052" width="2.83784" height="4.48626" fill="white" fill-opacity="0.36"/>
<rect x="102.162" y="54.1052" width="2.83784" height="4.48626" fill="white" fill-opacity="0.36"/>
<rect y="72.05" width="2.83784" height="4.48626" fill="white" fill-opacity="0.36"/>
<rect x="11.3511" y="72.05" width="2.83784" height="4.48626" fill="white" fill-opacity="0.36"/>
<rect x="22.7026" y="72.05" width="2.83784" height="4.48626" fill="white" fill-opacity="0.36"/>
<rect x="34.0537" y="72.05" width="2.83784" height="4.48626" fill="white" fill-opacity="0.36"/>
<rect x="45.4053" y="72.05" width="2.83784" height="4.48626" fill="white" fill-opacity="0.36"/>
<rect x="56.7568" y="72.05" width="2.83784" height="4.48626" fill="white" fill-opacity="0.36"/>
<rect x="68.1084" y="72.05" width="2.83784" height="4.48626" fill="white" fill-opacity="0.36"/>
<rect x="79.46" y="72.05" width="2.83784" height="4.48626" fill="white" fill-opacity="0.36"/>
<rect x="90.8105" y="72.05" width="2.83784" height="4.48626" fill="white" fill-opacity="0.36"/>
<rect x="102.162" y="72.05" width="2.83784" height="4.48626" fill="white" fill-opacity="0.36"/>
<rect y="89.9951" width="2.83784" height="4.48626" fill="white" fill-opacity="0.36"/>
<rect x="11.3511" y="89.9951" width="2.83784" height="4.48626" fill="white" fill-opacity="0.36"/>
<rect x="22.7026" y="89.9951" width="2.83784" height="4.48626" fill="white" fill-opacity="0.36"/>
<rect x="34.0537" y="89.9951" width="2.83784" height="4.48626" fill="white" fill-opacity="0.36"/>
<rect x="45.4053" y="89.9951" width="2.83784" height="4.48626" fill="white" fill-opacity="0.36"/>
<rect x="56.7568" y="89.9951" width="2.83784" height="4.48626" fill="white" fill-opacity="0.36"/>
<rect x="68.1084" y="89.9951" width="2.83784" height="4.48626" fill="white" fill-opacity="0.36"/>
<rect x="79.46" y="89.9951" width="2.83784" height="4.48626" fill="white" fill-opacity="0.36"/>
<rect x="90.8105" y="89.9951" width="2.83784" height="4.48626" fill="white" fill-opacity="0.36"/>
<rect x="102.162" y="89.9951" width="2.83784" height="4.48626" fill="white" fill-opacity="0.36"/>
<rect y="107.94" width="2.83784" height="4.48626" fill="white" fill-opacity="0.36"/>
<rect y="125.248" width="2.83784" height="4.48626" fill="white" fill-opacity="0.36"/>
<rect y="142.555" width="2.83784" height="4.48626" fill="white" fill-opacity="0.36"/>
<rect y="159.862" width="2.83784" height="4.48626" fill="white" fill-opacity="0.36"/>
<rect x="11.3511" y="107.94" width="2.83784" height="4.48626" fill="white" fill-opacity="0.36"/>
<rect x="11.3511" y="125.248" width="2.83784" height="4.48626" fill="white" fill-opacity="0.36"/>
<rect x="11.3511" y="142.555" width="2.83784" height="4.48626" fill="white" fill-opacity="0.36"/>
<rect x="11.3511" y="159.862" width="2.83784" height="4.48626" fill="white" fill-opacity="0.36"/>
<rect x="22.7026" y="107.94" width="2.83784" height="4.48626" fill="white" fill-opacity="0.36"/>
<rect x="22.7026" y="125.248" width="2.83784" height="4.48626" fill="white" fill-opacity="0.36"/>
<rect x="22.7026" y="142.555" width="2.83784" height="4.48626" fill="white" fill-opacity="0.36"/>
<rect x="22.7026" y="159.862" width="2.83784" height="4.48626" fill="white" fill-opacity="0.36"/>
<rect x="34.0537" y="107.94" width="2.83784" height="4.48626" fill="white" fill-opacity="0.36"/>
<rect x="34.0537" y="125.248" width="2.83784" height="4.48626" fill="white" fill-opacity="0.36"/>
<rect x="34.0537" y="142.555" width="2.83784" height="4.48626" fill="white" fill-opacity="0.36"/>
<rect x="34.0537" y="159.862" width="2.83784" height="4.48626" fill="white" fill-opacity="0.36"/>
<rect x="45.4053" y="107.94" width="2.83784" height="4.48626" fill="white" fill-opacity="0.36"/>
<rect x="45.4053" y="125.248" width="2.83784" height="4.48626" fill="white" fill-opacity="0.36"/>
<rect x="45.4053" y="142.555" width="2.83784" height="4.48626" fill="white" fill-opacity="0.36"/>
<rect x="45.4053" y="159.862" width="2.83784" height="4.48626" fill="white" fill-opacity="0.36"/>
<rect x="56.7568" y="107.94" width="2.83784" height="4.48626" fill="white" fill-opacity="0.36"/>
<rect x="56.7568" y="125.248" width="2.83784" height="4.48626" fill="white" fill-opacity="0.36"/>
<rect x="56.7568" y="142.555" width="2.83784" height="4.48626" fill="white" fill-opacity="0.36"/>
<rect x="56.7568" y="159.862" width="2.83784" height="4.48626" fill="white" fill-opacity="0.36"/>
<rect x="68.1084" y="107.94" width="2.83784" height="4.48626" fill="white" fill-opacity="0.36"/>
<rect x="68.1084" y="125.248" width="2.83784" height="4.48626" fill="white" fill-opacity="0.36"/>
<rect x="68.1084" y="142.555" width="2.83784" height="4.48626" fill="white" fill-opacity="0.36"/>
<rect x="68.1084" y="159.862" width="2.83784" height="4.48626" fill="white" fill-opacity="0.36"/>
<rect x="79.46" y="107.94" width="2.83784" height="4.48626" fill="white" fill-opacity="0.36"/>
<rect x="79.46" y="125.248" width="2.83784" height="4.48626" fill="white" fill-opacity="0.36"/>
<rect x="79.46" y="142.555" width="2.83784" height="4.48626" fill="white" fill-opacity="0.36"/>
<rect x="79.46" y="159.862" width="2.83784" height="4.48626" fill="white" fill-opacity="0.36"/>
<rect x="90.8105" y="107.94" width="2.83784" height="4.48626" fill="white" fill-opacity="0.36"/>
<rect x="90.8105" y="125.248" width="2.83784" height="4.48626" fill="white" fill-opacity="0.36"/>
<rect x="90.8105" y="142.555" width="2.83784" height="4.48626" fill="white" fill-opacity="0.36"/>
<rect x="90.8105" y="159.862" width="2.83784" height="4.48626" fill="white" fill-opacity="0.36"/>
<rect x="102.162" y="107.94" width="2.83784" height="4.48626" fill="white" fill-opacity="0.36"/>
<rect x="102.162" y="125.248" width="2.83784" height="4.48626" fill="white" fill-opacity="0.36"/>
<rect x="102.162" y="142.555" width="2.83784" height="4.48626" fill="white" fill-opacity="0.36"/>
<rect x="102.162" y="159.862" width="2.83784" height="4.48626" fill="white" fill-opacity="0.36"/>
</svg>
